# xmcd
#
# Track frame offsets:
#	150
#	21778
#	38771
#	51635
#	71189
#	86211
#	101850
#	120095
#	137692
#	154958
#	172104
#	188441
#	203586
#
# Disc length: 2920 seconds
#
# Revision: 1
# Processed by: cddbd v1.5.2PL0 Copyright (c) Steve Scherf et al.
# Submitted via: audiograbber 1.83.01
#
DISCID=b50b660d
DTITLE=Kenny Rogers - The Best of Kenny Rogers 1/2
DYEAR=2010
DGENRE=Country
TTITLE0=Have I Told You Lately That I Love You
TTITLE1=You Decorated My Life
TTITLE2=As Time Goes By
TTITLE3=She Believes In Me
TTITLE4=Crazy
TTITLE5=When I Fall In Love
TTITLE6=Don't Fall In Love With A Dreamer
TTITLE7=Three Times A Lady
TTITLE8=Endless Love
TTITLE9=Since I Fell For You
TTITLE10=I Don't Need You
TTITLE11=How Sweet It Is To Be Loved By You
TTITLE12=You Don't Know Me
EXTD=
EXTT0=
EXTT1=
EXTT2=
EXTT3=
EXTT4=
EXTT5=
EXTT6=
EXTT7=
EXTT8=
EXTT9=
EXTT10=
EXTT11=
EXTT12=
PLAYORDER=
